<?xml version="1.0" encoding="UTF-8"?>
<svg id="DEFINITIVO" xmlns="http://www.w3.org/2000/svg" xmlns:xlink="http://www.w3.org/1999/xlink" viewBox="0 0 450 150">
  <defs>
    <style>
      .cls-1 {
        fill: url(#Degradado_sin_nombre_76);
      }

      .cls-1, .cls-2, .cls-3, .cls-4, .cls-5, .cls-6, .cls-7 {
        stroke-width: 0px;
      }

      .cls-2 {
        fill: url(#Degradado_sin_nombre_47);
      }

      .cls-3 {
        fill: url(#Degradado_sin_nombre_81);
      }

      .cls-4 {
        fill: url(#Degradado_sin_nombre_194);
      }

      .cls-5 {
        fill: url(#Degradado_sin_nombre_197);
      }

      .cls-6 {
        fill: url(#Degradado_sin_nombre_155);
      }

      .cls-7 {
        fill: #fff;
      }
    </style>
    <linearGradient id="Degradado_sin_nombre_47" data-name="Degradado sin nombre 47" x1="22.86" y1="19.84" x2="427.82" y2="19.84" gradientUnits="userSpaceOnUse">
      <stop offset="0" stop-color="#165161"/>
      <stop offset=".56" stop-color="#59bab3"/>
      <stop offset=".98" stop-color="#90fad6"/>
    </linearGradient>
    <linearGradient id="Degradado_sin_nombre_76" data-name="Degradado sin nombre 76" x1="18.52" y1="64.4" x2="103.32" y2="64.4" gradientUnits="userSpaceOnUse">
      <stop offset="0" stop-color="#165161"/>
      <stop offset="1" stop-color="#00757d"/>
    </linearGradient>
    <linearGradient id="Degradado_sin_nombre_81" data-name="Degradado sin nombre 81" x1="162.27" y1="56.47" x2="177.51" y2="56.47" gradientUnits="userSpaceOnUse">
      <stop offset="0" stop-color="#008186"/>
      <stop offset=".98" stop-color="#009595"/>
    </linearGradient>
    <linearGradient id="Degradado_sin_nombre_155" data-name="Degradado sin nombre 155" x1="223.28" y1="60.5" x2="246.19" y2="60.5" gradientUnits="userSpaceOnUse">
      <stop offset=".05" stop-color="#009898"/>
      <stop offset="1" stop-color="#59bab3"/>
    </linearGradient>
    <linearGradient id="Degradado_sin_nombre_197" data-name="Degradado sin nombre 197" x1="297.24" y1="43.8" x2="301.33" y2="43.8" gradientUnits="userSpaceOnUse">
      <stop offset="0" stop-color="#59bab3"/>
      <stop offset=".98" stop-color="#90fad6"/>
    </linearGradient>
    <linearGradient id="Degradado_sin_nombre_194" data-name="Degradado sin nombre 194" x1="348.99" y1="63" x2="431.48" y2="63" gradientUnits="userSpaceOnUse">
      <stop offset="0" stop-color="#78e3c7"/>
      <stop offset=".98" stop-color="#90fad6"/>
    </linearGradient>
  </defs>
  <g>
    <polygon class="cls-7" points="116.14 130.27 118.76 127.65 135.26 127.65 135.26 121.28 116.14 121.28 109.76 127.65 109.76 142.53 116.14 148.9 135.26 148.9 135.26 142.53 118.76 142.53 116.14 139.91 116.14 130.27"/>
    <polygon class="cls-7" points="323.65 125.07 340.15 125.07 340.15 118.7 321.02 118.7 314.64 125.07 314.64 139.95 314.64 139.96 321.02 146.32 340.15 146.32 340.15 139.96 323.65 139.96 321.02 137.33 321.02 135.39 336.96 135.39 336.96 129.03 321.02 129.03 321.02 127.69 323.65 125.07"/>
    <polygon class="cls-7" points="273.99 142.53 273.99 127.65 267.62 121.28 248.49 121.28 248.49 127.65 264.99 127.65 267.62 130.27 267.62 139.91 264.99 142.53 248.49 142.53 248.49 148.9 267.62 148.9 273.99 142.53 273.99 142.53"/>
    <g>
      <polygon class="cls-7" points="182.33 139.59 182.33 130.27 184.95 127.65 197.2 127.65 203.09 122.92 201.46 121.28 201.46 121.28 182.33 121.28 175.95 127.65 175.95 142.53 175.95 142.53 177.16 143.74 182.33 139.59"/>
      <polygon class="cls-7" points="201.46 130.59 201.46 139.91 198.83 142.53 186.58 142.53 180.69 147.27 182.33 148.9 201.46 148.9 201.46 148.9 207.83 142.53 207.83 142.53 207.83 127.65 206.62 126.44 201.46 130.59"/>
    </g>
    <path class="cls-2" d="m427.66,22.84c-28.4,3.92-56.88,7.39-85.43,10.07h-.01c-1.17-.7-2.4-1.33-3.7-1.87-3.81-1.57-7.9-2.38-12.17-2.38-6.11,0-11.93,1.66-16.83,4.82-1.13.73-2.18,1.51-3.17,2.36-4.42.31-8.83.6-13.25.84h-.01c-.56-.55-1.16-1.08-1.78-1.57-5.21-4.17-11.99-6.46-19.09-6.46-8,0-15.67,2.96-21.02,8.11-.56.52-1.08,1.07-1.59,1.64-4.24.08-8.47.14-12.71.17-.34-.44-.69-.87-1.05-1.29-4.72-5.48-11.58-8.63-18.8-8.63h-47.6v8.37c-2.81-.14-5.61-.3-8.42-.47-.57-.62-1.2-1.22-1.84-1.79l-.94-.79h-.04c-4.35-3.43-9.74-5.31-15.33-5.31h-47.6v2.29h-.01c-21.57-2.3-43.02-5.2-64.48-8.16l-7.91-1.14c.05-6.61.53-13.01,3.79-16.1,8.15-7.63,137.75-3.21,198.23-2.78,60.51.45,189.53-3.35,197.77,1.75,5.13,3.18,5.51,10.91,5,18.32Z"/>
    <path class="cls-1" d="m95.27,54.77h8.06c-.43.27-.84.57-1.25.88s-.79.65-1.17,1c-25.44-4.73-46.33-7.33-54.28-3.44-8.77,4.27-1.52,44.84-1.52,44.84,0,0-1.94-3.61-4.72-9.17-11.63-23.2-21.26-41.68-21.87-42.81.16.04,1.47.86,3.51,2.01,2.21,1.26,4.63,0,4.63,0,0,0-3.08-9.28-3.66-17.33,2.2.3,4.4.57,6.6.78,21.84,2.75,43.73,5.04,65.68,6.83v16.41Z"/>
    <path class="cls-3" d="m169.44,69.53v.86c-2.38-.45-4.77-.92-7.17-1.39,3.52-4.38,5.44-9.77,5.44-15.5,0-3.82-.88-7.59-2.56-10.95,1.43.05,2.86.1,4.29.14v12.08h8.07c-4.85,3.12-8.07,8.58-8.07,14.76Z"/>
    <path class="cls-6" d="m239.79,43.52c2.13-.03,4.27-.05,6.41-.09-1.66,3.22-2.51,6.68-2.51,10.26v22.63c-7.05.79-13.41,1.25-18.8,1.25-.52,0-1.05,0-1.6-.01,10.69-2.78,18.61-12.51,18.61-24.06,0-3.48-.71-6.82-2.1-9.98Z"/>
    <path class="cls-5" d="m301.33,41.65c-.86,1.38-1.56,2.82-2.1,4.3-.52-1.42-1.18-2.79-1.99-4.11,1.36-.05,2.73-.12,4.09-.19Z"/>
    <path class="cls-4" d="m431.48,47.04s-16.49,29.27-23.13,43.71c-.74,1.59-1.25,3.64-1.49,4.85.94-5.91,5.08-34.37-3.03-43.24-3.46-3.77-23.26-1.03-49.1,3.79v-2.46c0-5.48-2.03-10.78-5.74-15.12,26.04-2.08,52.04-4.81,77.94-8.16-.96,8.58-2.74,17.67-2.74,17.67,3.2-.25,7.29-1.04,7.29-1.04Z"/>
  </g>
  <g>
    <path class="cls-7" d="m238.64,53.5c0,11.94-9.67,21.61-21.59,21.61h-21v22.94h-23.36v-28.52c0-7.9,6.41-14.29,14.29-14.29h27.56c1.03,0,1.86-.83,1.86-1.86s-.83-1.86-1.86-1.86h-41.85v-19.62h44.36c6.15,0,11.68,2.57,15.6,6.68.26.27.51.55.74.82,1.1,1.26,2.05,2.65,2.82,4.16.14.26.27.52.4.79,1.3,2.78,2.03,5.87,2.03,9.15Z"/>
    <path class="cls-7" d="m165.36,98.05h-26.06l-16.45-22.94h-.99v22.94h-23.35v-28.52c0-4.04,1.68-7.69,4.38-10.29.38-.36.77-.7,1.17-1.01.35-.27.7-.53,1.09-.77h.01c2.21-1.4,4.82-2.22,7.64-2.22h27.56c1.03,0,1.84-.83,1.84-1.86s-.82-1.86-1.84-1.86h-41.85v-19.62h44.36c4.86,0,9.35,1.61,12.95,4.33.42.31.82.65,1.21.99h.01c1.72,1.48,3.18,3.24,4.35,5.18.17.29.34.58.49.88,1.65,3.04,2.57,6.52,2.57,10.21,0,5.73-2.23,10.91-5.86,14.77-.27.29-.55.56-.83.83-2.6,2.48-5.81,4.31-9.39,5.26l16.98,23.69Z"/>
    <path class="cls-7" d="m351.48,53.69v44.36h-23.36v-41.85c0-1.03-.68-1.83-1.88-1.83s-1.83.81-1.83,1.83v18.5c0,12.89-10.45,23.35-23.35,23.35h-3.7c-12.9,0-23.36-10.46-23.36-23.36v-18.49c0-1.03-.68-1.83-1.88-1.83s-1.83.81-1.83,1.83v41.85h-23.35v-44.36c0-3.4.91-6.64,2.55-9.52.16-.27.31-.53.47-.79.96-1.55,2.13-2.98,3.48-4.26.29-.29.6-.56.9-.82,4.55-3.94,10.86-6.39,17.89-6.39,6.21,0,11.82,1.91,16.16,5.05.3.22.6.45.9.69,1.61,1.29,3.03,2.77,4.18,4.38.18.23.35.47.51.71,2.17,3.24,3.39,6.98,3.39,10.95v13.37s.01,6.67.01,6.67c0,1.04.83,1.87,1.87,1.87s1.87-.83,1.87-1.87v-20.91c.17-3.87,1.52-7.5,3.75-10.61.19-.26.39-.52.58-.77,1.6-2.01,3.56-3.78,5.82-5.24.44-.29.88-.55,1.34-.81,3.94-2.2,8.64-3.49,13.73-3.49,3.37,0,6.57.56,9.48,1.59.49.17.97.35,1.44.55,2.87,1.2,5.42,2.85,7.54,4.86h.01c.22.19.44.4.65.62,3.77,3.83,6.02,8.8,6.02,14.17Z"/>
  </g>
</svg>