<?xml version="1.0" encoding="UTF-8"?>
<svg id="TRAZO" xmlns="http://www.w3.org/2000/svg" viewBox="0 0 171.16 125.19">
  <defs>
    <style>
      .cls-1 {
        fill: #fb2b6d;
      }

      .cls-1, .cls-2, .cls-3 {
        stroke-width: 0px;
      }

      .cls-2 {
        fill: #59bab3;
      }

      .cls-3 {
        fill: #fff;
      }
    </style>
  </defs>
  <g>
    <polygon class="cls-1" points="160.67 24.97 135.61 49.8 135.56 63.84 168.18 96.76 171.16 125.19 162.42 125.15 162.42 125.14 111.46 73.73 111.59 39.65 151.59 0 151.6 0 158.06 .03 160.67 24.97"/>
    <polygon class="cls-1" points="45.02 24.97 70.07 49.8 70.12 63.84 37.5 96.76 34.52 125.19 43.27 125.15 43.27 125.14 94.22 73.73 94.1 39.65 54.09 0 54.09 0 47.63 .03 45.02 24.97"/>
  </g>
  <g>
    <polygon class="cls-2" points="143.47 24.97 118.41 49.8 118.36 63.84 150.98 96.76 153.96 125.19 145.22 125.15 145.22 125.14 94.26 73.73 94.39 39.65 134.39 0 134.4 0 140.86 .03 143.47 24.97"/>
    <polygon class="cls-2" points="27.82 24.97 52.87 49.8 52.92 63.84 20.3 96.76 17.32 125.19 26.07 125.15 26.07 125.14 77.02 73.73 76.9 39.65 36.89 0 36.89 0 30.43 .03 27.82 24.97"/>
  </g>
  <g>
    <polygon class="cls-3" points="126.14 24.97 101.09 49.8 101.04 63.84 133.66 96.76 136.64 125.19 127.89 125.15 127.89 125.14 76.94 73.73 76.9 39.65 117.07 0 117.07 0 123.53 .03 126.14 24.97"/>
    <polygon class="cls-3" points="10.49 24.97 35.55 49.8 35.6 63.84 2.98 96.76 0 125.19 8.74 125.15 8.75 125.14 59.7 73.73 59.57 39.65 19.57 0 19.57 0 13.1 .03 10.49 24.97"/>
  </g>
</svg>